<svg width="112" height="112" viewBox="0 0 112 112" fill="none" xmlns="http://www.w3.org/2000/svg">
<path fill-rule="evenodd" clip-rule="evenodd" d="M9.33337 10.5C7.40038 10.5 5.83337 12.067 5.83337 14V70C5.83337 71.933 7.40038 73.5 9.33337 73.5H19.5503L27.8585 81.8082C29.2253 83.175 31.4414 83.175 32.8082 81.8082L41.1165 73.5H47.8334V88.6667C47.8334 90.5997 49.4004 92.1667 51.3334 92.1667H75.5503L81.5252 98.1415C82.892 99.5084 85.1081 99.5084 86.4749 98.1415L92.4498 92.1667H102.667C104.6 92.1667 106.167 90.5997 106.167 88.6667V51.3333C106.167 49.4003 104.6 47.8333 102.667 47.8333H87.5V14C87.5 12.067 85.933 10.5 84 10.5H9.33337ZM87.5 54.8333V70C87.5 71.933 85.933 73.5 84 73.5L54.8334 73.5V85.1667H77C77.9283 85.1667 78.8185 85.5354 79.4749 86.1918L84 90.7169L88.5252 86.1918C89.1815 85.5354 90.0718 85.1667 91 85.1667H99.1667V54.8333H87.5ZM80.5 51.3333V17.5H12.8334V66.5H21C21.9283 66.5 22.8185 66.8688 23.4749 67.5251L30.3334 74.3836L37.1918 67.5251C37.8482 66.8688 38.7384 66.5 39.6667 66.5H51.3282L51.3334 66.5L80.5 66.5V51.3333ZM24.5 51.3333C24.5 49.4003 26.067 47.8333 28 47.8333H42C43.933 47.8333 45.5 49.4003 45.5 51.3333C45.5 53.2663 43.933 54.8333 42 54.8333H28C26.067 54.8333 24.5 53.2663 24.5 51.3333ZM28 29.1667C26.067 29.1667 24.5 30.7337 24.5 32.6667C24.5 34.5997 26.067 36.1667 28 36.1667H56C57.933 36.1667 59.5 34.5997 59.5 32.6667C59.5 30.7337 57.933 29.1667 56 29.1667H28Z" fill="#C9195D"/>
</svg>
