<svg width="113" height="112" viewBox="0 0 113 112" fill="none" xmlns="http://www.w3.org/2000/svg">
<path d="M20.1415 96.0537V92.3099C20.1415 90.9136 19.5964 89.5577 18.6476 88.5256C16.6085 86.3603 12.9342 82.4546 10.4913 79.8441C8.91662 78.1644 8.02832 75.9181 8.02832 73.6112V39.3908C8.02832 36.0315 10.7336 33.3198 14.0849 33.3198C15.6798 33.3198 17.2344 33.9674 18.3649 35.1007C19.4955 36.2339 20.1415 37.7719 20.1415 39.3908V49.5092" stroke="white" stroke-width="4" stroke-linecap="round" stroke-linejoin="round"/>
<path d="M96.8584 96.0537V92.3099C96.8584 90.9136 97.4035 89.5577 98.3524 88.5256C100.391 86.3603 104.066 82.4546 106.509 79.8441C108.083 78.1644 108.972 75.9181 108.972 73.6112V39.3908C108.972 36.0315 106.266 33.3198 102.915 33.3198C101.32 33.3198 99.7656 33.9674 98.635 35.1007C97.5044 36.2339 96.8584 37.7719 96.8584 39.3908V49.5092" stroke="white" stroke-width="4" stroke-linecap="round" stroke-linejoin="round"/>
<path d="M52.4436 108.965V98.9878C52.4436 98.2188 52.1408 97.4701 51.5957 96.9237C51.0506 96.3773 50.3036 96.0737 49.5365 96.0737H21.0502C20.2831 96.0737 19.5361 96.3773 18.991 96.9237C18.4459 97.4701 18.1431 98.2188 18.1431 98.9878V108.965" stroke="white" stroke-width="4" stroke-linecap="round" stroke-linejoin="round"/>
<path d="M64.5566 108.965V98.9878C64.5566 98.2188 64.8595 97.4701 65.4046 96.9237C65.9497 96.3773 66.6966 96.0737 67.4638 96.0737H95.95C96.7172 96.0737 97.4642 96.3773 98.0093 96.9237C98.5544 97.4701 98.8572 98.2188 98.8572 98.9878V108.965" stroke="white" stroke-width="4" stroke-linecap="round" stroke-linejoin="round"/>
<path d="M50.4245 96.0536V84.9436C50.4245 80.0058 48.4057 75.2907 44.8323 71.8909C40.2091 67.4793 33.7689 61.3476 29.7109 57.4621C27.5508 55.4182 24.1792 55.4587 22.0796 57.5633C19.8992 59.7489 19.8992 63.2903 22.0796 65.4758C25.9357 69.3411 31.2251 74.6431 31.2251 74.6431" stroke="white" stroke-width="4" stroke-linecap="round" stroke-linejoin="round"/>
<path d="M66.5757 96.0535V84.9436C66.5757 80.0058 68.5946 75.2907 72.1679 71.8909C76.7912 67.4793 83.2313 61.3476 87.2893 57.4621C89.4495 55.4182 92.821 55.4587 94.9206 57.5633C97.101 59.7489 97.101 63.2903 94.9206 65.4758C91.0646 69.3411 85.7751 74.6431 85.7751 74.6431" stroke="white" stroke-width="4" stroke-linecap="round" stroke-linejoin="round"/>
<path d="M44.3681 27.2487C49.3856 27.2487 53.453 23.1716 53.453 18.1422C53.453 13.1128 49.3856 9.03564 44.3681 9.03564C39.3507 9.03564 35.2832 13.1128 35.2832 18.1422C35.2832 23.1716 39.3507 27.2487 44.3681 27.2487Z" stroke="white" stroke-width="4" stroke-linecap="round" stroke-linejoin="round"/>
<path d="M69.3212 35.3434C74.3387 35.3434 78.4061 31.2663 78.4061 26.2369C78.4061 21.2075 74.3387 17.1304 69.3212 17.1304C64.3038 17.1304 60.2363 21.2075 60.2363 26.2369C60.2363 31.2663 64.3038 35.3434 69.3212 35.3434Z" stroke="white" stroke-width="4" stroke-linecap="round" stroke-linejoin="round"/>
<path d="M29.5093 42.426C31.8512 36.4966 37.6251 32.3076 44.3681 32.3076C51.1112 32.3076 56.8851 36.4966 59.227 42.426" stroke="white" stroke-width="4" stroke-linecap="round" stroke-linejoin="round"/>
<path d="M54.4624 50.5207C56.8043 44.5913 62.5783 40.4023 69.3213 40.4023C76.0643 40.4023 81.8383 44.5913 84.1801 50.5207" stroke="white" stroke-width="4" stroke-linecap="round" stroke-linejoin="round"/>
</svg>
