<svg width="166" height="38" viewBox="0 0 166 38" fill="none" xmlns="http://www.w3.org/2000/svg">
<g clip-path="url(#clip0_1_29)">
<path d="M144.426 27.8155C144.861 27.3504 145.213 26.5909 145.732 26.4672C147.312 26.0846 147.658 24.9777 147.711 23.6766C147.789 21.7514 147.783 19.8262 147.795 17.8951C147.801 16.5116 147.36 15.393 146.084 14.5805C145.613 14.2802 145.249 13.4913 145.261 12.932C145.261 12.6435 146.161 12.2726 146.704 12.1019C149.029 11.366 151.468 10.895 153.698 9.94121C156.429 8.76961 156.357 8.60476 156.888 11.2541C158.146 10.5829 159.38 9.74692 160.752 9.25827C162.207 8.74017 163.638 9.14641 164.735 10.2886C165.826 11.4307 165.79 12.7377 165.23 14.1095C164.663 15.4931 164.228 16.9414 163.518 18.2484C163.22 18.8018 162.296 19.4494 161.795 19.3552C161.223 19.2434 160.627 18.425 160.364 17.7892C159.965 16.8354 159.977 15.7227 159.559 14.7807C159.368 14.345 158.581 13.9506 158.063 13.9506C157.669 13.9506 156.954 14.5982 156.936 14.9867C156.804 18.3661 156.721 21.7573 156.84 25.1367C156.852 25.6253 158.033 26.0316 158.599 26.5614C158.963 26.9029 159.19 27.3857 159.47 27.8037C159.136 28.0039 158.802 28.3689 158.462 28.3689C153.93 28.4042 149.393 28.3924 144.855 28.3924C144.712 28.204 144.563 28.0097 144.42 27.8155H144.426Z" fill="#C9195D"/>
<path d="M39.607 25.643C36.6972 29.2226 33.9543 29.9939 30.496 28.2865C27.938 27.0266 26.5546 23.7767 27.294 20.7741C28.1765 17.1887 30.7881 16.1172 38.0388 16.388C38.6231 13.7387 37.3113 11.8606 34.64 11.9253C33.1195 11.9606 31.6169 12.5847 30.0905 12.8791C29.6314 12.9674 29.1305 12.8261 28.6475 12.7908C28.7549 12.2903 28.6833 11.6015 28.9993 11.313C31.9628 8.59304 42.4452 7.78646 45.3669 11.8606C46.2673 13.1146 46.6966 14.7866 47.0365 16.3291C47.4717 18.325 47.597 20.3856 47.8534 22.4226C47.9667 23.3528 48.1098 24.0829 49.4514 23.971C49.8628 23.9357 50.8466 25.1367 50.7274 25.4076C50.2742 26.4261 49.672 27.5977 48.7657 28.1629C45.51 30.1999 41.8072 29.1343 39.6189 25.6489L39.607 25.643ZM39.0643 22.0988C38.9868 19.1257 38.4919 18.5664 36.721 18.5958C35.1886 18.6193 34.7831 19.4848 34.8547 20.7859C34.9441 22.5109 36.077 23.9239 37.4186 23.5648C38.1998 23.3587 38.7722 22.3814 39.0703 22.0929L39.0643 22.0988Z" fill="#C9195D"/>
<path d="M89.8196 12.1722C94.7388 7.55061 99.4493 8.49849 101.65 12.0015C103.486 11.0654 105.197 9.8055 107.117 9.29329C111.184 8.21 114.66 10.8064 115.06 14.8746C115.352 17.836 115.656 20.7915 115.9 23.2583C117.045 23.8941 118.369 24.3063 118.357 24.683C118.333 25.6898 118.017 26.9909 117.302 27.6327C115.364 29.3812 112.925 29.499 110.474 28.7336C108.286 28.0448 107.553 26.2785 107.32 24.2474C107.058 21.9572 106.831 19.667 106.628 17.3709C106.402 14.8451 105.71 13.7854 104.309 13.9444C102.824 14.1092 102.162 15.3868 102.317 17.8124C102.401 19.1194 102.52 20.4205 102.633 21.7217C102.723 22.8108 102.621 23.7352 104.255 24.1826C105.656 24.5712 105.126 26.1019 104.398 27.0204C102.985 28.8043 100.976 29.3871 98.7577 29.0339C96.3964 28.663 94.7448 27.2912 94.3691 24.9362C93.9636 22.3575 93.8384 19.7376 93.588 17.1354C93.4568 15.7871 93.5999 14.2034 91.674 13.9679C90.3324 13.7972 89.4499 15.1395 89.438 17.3002C89.432 19.4786 89.5035 21.6569 89.6049 23.8353C89.6645 25.1011 90.1177 26.0843 91.5488 26.5023C92.0019 26.6318 92.2881 27.3324 92.6519 27.774C92.1868 27.98 91.7157 28.3509 91.2447 28.3568C87.2258 28.4039 83.201 28.4098 79.1821 28.3568C78.6515 28.3509 78.1267 27.9741 77.602 27.7681C78.0254 27.2971 78.4726 26.8437 78.8721 26.3551C79.4982 25.6015 80.5237 24.8832 80.6251 24.059C80.9053 21.8512 80.9531 19.5786 80.7384 17.3591C80.649 16.4053 79.6532 15.534 79.0987 14.6096C78.7707 14.0621 78.2877 13.4793 78.3056 12.92C78.3116 12.6197 79.1941 12.2488 79.7367 12.078C82.2589 11.2538 84.8705 10.6415 87.3093 9.63476C89.432 8.76342 89.748 8.79286 89.7361 10.9889C89.7361 11.2891 89.7599 11.5953 89.7957 12.1722H89.8017H89.8196Z" fill="#C9195D"/>
<path d="M75.8846 9.95339C76.1052 10.8188 76.0456 11.6843 74.5728 12.0317C74.2508 12.1082 73.8156 12.9678 73.911 13.3504C75.1452 18.4549 74.3761 20.4036 69.8683 23.2001C69.7192 23.2943 69.5642 23.3767 69.2183 23.5828C70.3214 24.0715 71.192 24.3953 72.0029 24.8309C74.2628 26.0496 75.6401 27.8571 75.664 30.5359C75.6819 33.1322 74.0243 34.5452 71.9671 35.5108C67.1672 37.7598 62.2539 37.8186 57.3824 35.7521C56.321 35.2988 55.3074 34.5334 54.5262 33.6739C52.7076 31.6663 52.9402 29.1052 55.0092 27.3625C55.6711 26.8032 56.4582 26.3617 57.2572 26.0143C60.2147 24.7191 60.1193 24.9075 60.8884 27.9101C61.443 30.0708 62.7548 32.0666 63.9413 34.0036C64.2395 34.4863 65.5215 34.816 66.0641 34.5747C66.553 34.3568 66.9704 33.2147 66.8631 32.5611C66.5947 30.8479 66.1535 29.1288 65.5393 27.5038C64.8834 25.7729 63.6432 24.8251 61.604 24.5189C59.4932 24.201 57.2691 23.5357 55.4803 22.4112C51.2408 19.7442 51.3481 14.0334 55.5459 11.2604C58.7896 9.11149 62.4626 8.82301 66.231 9.1527C69.3316 9.41764 72.4322 9.6708 75.8965 9.95928H75.8906L75.8846 9.95339ZM67.0062 19.9915C65.8911 17.5129 64.8477 14.9283 63.5478 12.4791C63.2676 11.9433 62.0214 11.5901 61.3356 11.7196C60.9183 11.7962 60.4174 13.0149 60.477 13.6684C60.7632 16.5826 61.7053 19.3085 63.8161 21.4398C64.2454 21.8755 65.1995 22.1286 65.7779 21.9697C66.2251 21.846 66.4516 20.9452 67.0062 19.9915Z" fill="#C9195D"/>
<path d="M131.671 25.6313C128.964 29.1461 126.418 29.9233 122.917 28.422C120.133 27.2268 118.433 23.9358 119.477 20.7389C121.23 15.3754 125.839 16.0407 130.156 16.4293C130.758 12.7732 128.081 10.9128 124.021 12.0961C123.365 12.2904 122.774 12.7202 122.118 12.9145C121.719 13.0322 121.248 12.9027 120.807 12.885C120.866 12.3846 120.735 11.7252 121.015 11.4073C121.445 10.9128 122.101 10.5418 122.739 10.2946C126.579 8.81683 130.496 8.61077 134.437 9.82358C137.311 10.7067 138.653 12.8497 139.047 15.6463C139.363 17.8599 139.619 20.0795 139.899 22.2991C140.018 23.2646 140.09 24.1536 141.581 23.9475C141.932 23.9004 142.916 25.1898 142.779 25.4606C142.248 26.5027 141.575 27.7096 140.603 28.2689C137.299 30.1588 133.913 29.0932 131.665 25.6313H131.671ZM131.152 22.2107C131.152 19.2435 130.651 18.643 128.91 18.6194C127.419 18.5959 126.883 19.3495 126.93 20.7094C126.99 22.4286 128.063 23.871 129.411 23.5884C130.204 23.4236 130.824 22.4933 131.158 22.2107H131.152Z" fill="#C9195D"/>
<path d="M14.1708 9.95291C14.3139 8.39274 14.3437 7.06807 12.859 6.10253C12.4357 5.82582 12.0779 5.03102 12.1852 4.57769C12.2687 4.21266 13.0677 3.93596 13.5924 3.73578C16.2339 2.73492 18.8873 1.76938 21.5407 0.797952C22.2026 0.556568 22.8942 0.374057 23.574 0.162109C23.6753 0.856827 23.884 1.55154 23.8602 2.24037C23.6515 8.64002 23.3772 15.0338 23.1685 21.4334C23.1327 22.6462 23.1268 23.965 25.16 23.2762C25.3986 23.1938 26.3466 24.0474 26.281 24.3006C26.0008 25.3839 25.7205 26.6497 24.9692 27.415C22.1847 30.241 17.2118 29.5816 15.1069 26.2611C14.9102 25.955 14.7015 25.6606 13.8071 24.801C13.6342 25.2661 13.5328 25.7725 13.2764 26.1846C10.4918 30.5589 5.48913 29.4815 2.83573 26.8499C0.104814 24.1416 -0.616672 18.7782 1.2258 14.8571C2.88939 11.3188 6.56837 9.09335 10.5813 9.31118C11.7082 9.37006 12.8173 9.70564 14.1648 9.9588L14.1708 9.95291ZM14.6061 20.5621C14.7134 20.515 14.8267 20.4738 14.934 20.4325C14.1947 18.2954 13.5865 16.0994 12.6563 14.0388C12.227 13.0968 11.261 12.2667 10.3368 11.6897C9.08463 10.9126 7.73706 11.5425 7.6834 12.9378C7.54029 16.7823 8.70898 20.2618 11.5174 23.0583C12.704 24.2358 13.8369 23.8119 14.3258 22.1988C14.4809 21.6748 14.5166 21.1096 14.612 20.568L14.6061 20.5621Z" fill="#C9195D"/>
</g>
<defs>
<clipPath id="clip0_1_29">
<rect width="165.405" height="37.0908" fill="white" transform="translate(0.205261 0.162109)"/>
</clipPath>
</defs>
</svg>
