<svg width="112" height="112" viewBox="0 0 112 112" fill="none" xmlns="http://www.w3.org/2000/svg">
<path fill-rule="evenodd" clip-rule="evenodd" d="M32.6667 50.1666C32.0223 50.1666 31.5 50.689 31.5 51.3333V84C31.5 84.6443 32.0223 85.1666 32.6667 85.1666H79.3333C79.9777 85.1666 80.5 84.6443 80.5 84V51.3333C80.5 50.689 79.9777 50.1666 79.3333 50.1666H32.6667ZM24.5 51.3333C24.5 46.823 28.1563 43.1666 32.6667 43.1666H79.3333C83.8437 43.1666 87.5 46.823 87.5 51.3333V84C87.5 88.5103 83.8437 92.1666 79.3333 92.1666H32.6667C28.1563 92.1666 24.5 88.5103 24.5 84V51.3333Z" fill="#C9195D"/>
<path fill-rule="evenodd" clip-rule="evenodd" d="M56 22.1667C50.0566 22.1667 45.5 26.1499 45.5 32.6667V46.6667C45.5 48.5997 43.933 50.1667 42 50.1667C40.067 50.1667 38.5 48.5997 38.5 46.6667V32.6667C38.5 22.0013 46.4795 15.1667 56 15.1667C61.231 15.1667 66.097 17.2205 69.3943 21.0495L69.3945 21.0497C70.8413 22.73 71.9548 24.7191 72.6544 26.9546C73.2318 28.7993 72.2044 30.7628 70.3597 31.3402C68.5149 31.9176 66.5514 30.8902 65.974 29.0455C65.5561 27.7101 64.9069 26.566 64.0901 25.6173M56 22.1667C59.399 22.1667 62.2511 23.4819 64.0899 25.617L56 22.1667Z" fill="#C9195D"/>
<path fill-rule="evenodd" clip-rule="evenodd" d="M56 61.8334C57.933 61.8334 59.5 63.4004 59.5 65.3334V70C59.5 71.933 57.933 73.5 56 73.5C54.067 73.5 52.5 71.933 52.5 70V65.3334C52.5 63.4004 54.067 61.8334 56 61.8334Z" fill="#C9195D"/>
<path fill-rule="evenodd" clip-rule="evenodd" d="M14 38.5C15.933 38.5 17.5 40.067 17.5 42V70C17.5 71.933 15.933 73.5 14 73.5C12.067 73.5 10.5 71.933 10.5 70V42C10.5 40.067 12.067 38.5 14 38.5Z" fill="#C9195D"/>
<path fill-rule="evenodd" clip-rule="evenodd" d="M98 38.5C99.933 38.5 101.5 40.067 101.5 42V70C101.5 71.933 99.933 73.5 98 73.5C96.067 73.5 94.5 71.933 94.5 70V42C94.5 40.067 96.067 38.5 98 38.5Z" fill="#C9195D"/>
</svg>
