<svg width="21" height="21" viewBox="0 0 21 21" fill="none" xmlns="http://www.w3.org/2000/svg">
<g clip-path="url(#clip0_570_1094)">
<path d="M20.3123 10.1562C20.3123 4.54707 15.7653 0 10.1562 0C4.54707 0 0 4.54707 0 10.1562C0 15.2253 3.71395 19.427 8.56927 20.189V13.0919H5.99055V10.1562H8.56927V7.91864C8.56927 5.37325 10.0856 3.96725 12.4054 3.96725C13.5162 3.96725 14.6788 4.16562 14.6788 4.16562V6.66499H13.3982C12.1366 6.66499 11.7431 7.44792 11.7431 8.25189V10.1562H14.5598L14.1095 13.0919H11.7431V20.189C16.5984 19.427 20.3123 15.2253 20.3123 10.1562Z" fill="#C9195D"/>
</g>
<defs>
<clipPath id="clip0_570_1094">
<rect width="20.3123" height="20.3123" fill="white"/>
</clipPath>
</defs>
</svg>
