<svg width="119" height="111" viewBox="0 0 119 111" fill="none" xmlns="http://www.w3.org/2000/svg">
<g id="financial education">
<path id="Vector" d="M116.179 79.6196H17.1474C9.34274 79.6196 3 85.9624 3 93.767C3 101.572 9.34274 107.914 17.1474 107.914H116.179" stroke="white" stroke-width="4.5" stroke-linecap="round" stroke-linejoin="round"/>
<path id="Vector_2" d="M100.853 51.3247H32.474C28.725 51.3247 25.1174 52.8102 22.4766 55.4746C19.8357 58.139 18.3267 61.723 18.3267 65.4721C18.3267 66.6746 18.4917 67.8535 18.7747 69.0089" stroke="white" stroke-width="4.5" stroke-linecap="round" stroke-linejoin="round"/>
<path id="Vector_3" d="M19.5054 93.7671H99.6738" stroke="white" stroke-width="4.5" stroke-linecap="round" stroke-linejoin="round"/>
<path id="Vector_4" d="M30.3516 65.4722H90.2421" stroke="white" stroke-width="4.5" stroke-linecap="round" stroke-linejoin="round"/>
<path id="Vector_5" d="M102.032 79.6196V107.914" stroke="white" stroke-width="4.5" stroke-linecap="round" stroke-linejoin="round"/>
<path id="Vector_6" d="M90.5254 51.3247V65.4721" stroke="white" stroke-width="4.5" stroke-linecap="round" stroke-linejoin="round"/>
<path id="Vector_7" d="M76.3074 19.8236C76.3074 19.8236 80.976 18.1023 85.1967 16.5225C86.2341 16.1453 86.9179 15.1549 86.9179 14.0467C86.9179 12.9385 86.2341 11.9482 85.1967 11.5709C79.0426 9.28379 70.059 5.93558 64.5415 3.88421C61.3583 2.70526 57.8451 2.70526 54.6855 3.88421C49.168 5.93558 40.1844 9.28379 34.0303 11.5709C32.9929 11.9482 32.3091 12.9385 32.3091 14.0467C32.3091 15.1549 32.9929 16.1453 34.0303 16.5225C40.1844 18.8097 49.168 22.1343 54.6855 24.2093C57.8687 25.3882 61.3583 25.3882 64.5415 24.2093" stroke="white" stroke-width="4.5" stroke-linecap="round" stroke-linejoin="round"/>
<path id="Vector_8" d="M42.8486 20.4127V29.5613C42.8486 33.947 46.0082 37.7197 50.3232 38.4978C51.1484 38.6392 51.9737 38.7807 52.799 38.9458C57.279 39.7475 61.8768 39.7475 66.3804 38.9458C67.2057 38.8043 68.0309 38.6628 68.8562 38.4978C73.1712 37.7197 76.3307 33.9706 76.3307 29.5613V19.8232" stroke="white" stroke-width="4.5" stroke-linecap="round" stroke-linejoin="round"/>
<path id="Vector_9" d="M59.6367 15.4141C63.4329 16.0743 66.2152 19.3989 66.2152 23.2659V28.5475" stroke="white" stroke-width="4.5" stroke-linecap="round" stroke-linejoin="round"/>
</g>
</svg>
