<svg width="161" height="161" viewBox="0 0 161 161" fill="none" xmlns="http://www.w3.org/2000/svg">
<g id="Fireworks (&#231;&#164;&#188;&#232;&#138;&#177;)">
<path id="Union" fill-rule="evenodd" clip-rule="evenodd" d="M147.583 13.4167C147.583 17.1216 144.58 20.125 140.875 20.125C137.17 20.125 134.167 17.1216 134.167 13.4167C134.167 9.7118 137.17 6.70837 140.875 6.70837C144.58 6.70837 147.583 9.7118 147.583 13.4167ZM67.0833 23.4792C70.7883 23.4792 73.7917 20.4758 73.7917 16.7709C73.7917 13.066 70.7883 10.0625 67.0833 10.0625C63.3783 10.0625 60.375 13.066 60.375 16.7709C60.375 20.4758 63.3783 23.4792 67.0833 23.4792ZM93.7132 19.9216C95.678 17.9567 98.8636 17.9567 100.828 19.9216C105.051 24.1437 107.273 29.289 106.444 35.0917C105.663 40.5576 102.289 45.7016 97.4743 50.516L80.7035 67.2868C78.7386 69.2517 75.553 69.2517 73.5882 67.2868C71.6234 65.322 71.6234 62.1364 73.5882 60.1716L90.359 43.4007C94.4892 39.2705 96.1457 36.0292 96.4829 33.6687C96.772 31.6451 96.1994 29.523 93.7132 27.0368C91.7484 25.072 91.7484 21.8864 93.7132 19.9216ZM48.1349 52.993C49.8358 52.6175 51.6101 53.1486 52.825 54.3969L107.585 110.661C108.801 111.911 109.283 113.701 108.86 115.392C108.436 117.084 107.167 118.435 105.506 118.964L21.6518 145.669C19.8342 146.248 17.8455 145.749 16.5163 144.38C15.1872 143.012 14.7461 141.01 15.3773 139.21L44.4717 56.2411C45.0481 54.5973 46.4339 53.3686 48.1349 52.993ZM51.2794 67.2361L28.2114 133.019L94.6966 111.846L51.2794 67.2361ZM117.599 70.6409C122.641 65.5991 127.027 63.7292 130.812 63.7292C134.598 63.7292 138.984 65.5991 144.026 70.6409C145.991 72.6057 149.176 72.6057 151.141 70.6409C153.106 68.6761 153.106 65.4905 151.141 63.5257C145.002 57.387 138.208 53.6667 130.812 53.6667C123.417 53.6667 116.623 57.387 110.484 63.5257L93.7132 80.2965C91.7484 82.2613 91.7484 85.4469 93.7132 87.4118C95.678 89.3766 98.8636 89.3766 100.828 87.4118L117.599 70.6409ZM140.875 97.2709C144.58 97.2709 147.583 94.2676 147.583 90.5625C147.583 86.8575 144.58 83.8542 140.875 83.8542C137.17 83.8542 134.167 86.8575 134.167 90.5625C134.167 94.2676 137.17 97.2709 140.875 97.2709ZM137.521 120.75C137.521 124.455 134.518 127.458 130.813 127.458C127.107 127.458 124.104 124.455 124.104 120.75C124.104 117.045 127.107 114.042 130.813 114.042C134.518 114.042 137.521 117.045 137.521 120.75Z" fill="#C9195D"/>
</g>
</svg>
