<svg width="21" height="21" viewBox="0 0 21 21" fill="none" xmlns="http://www.w3.org/2000/svg">
<g clip-path="url(#clip0_570_1093)">
<path d="M10.3183 1.8289C13.0319 1.8289 13.3532 1.84081 14.4204 1.88841C15.4122 1.93205 15.9478 2.09868 16.3049 2.23753C16.777 2.42003 17.1182 2.64219 17.4712 2.99528C17.8283 3.35233 18.0465 3.68955 18.229 4.16165C18.3678 4.5187 18.5345 5.05825 18.5781 6.0461C18.6257 7.11725 18.6376 7.4386 18.6376 10.1482C18.6376 12.8618 18.6257 13.1832 18.5781 14.2504C18.5345 15.2422 18.3678 15.7778 18.229 16.1348C18.0465 16.6069 17.8243 16.9481 17.4712 17.3012C17.1142 17.6582 16.777 17.8764 16.3049 18.0589C15.9478 18.1978 15.4083 18.3644 14.4204 18.4081C13.3493 18.4557 13.0279 18.4676 10.3183 18.4676C7.60468 18.4676 7.28333 18.4557 6.21614 18.4081C5.22433 18.3644 4.68875 18.1978 4.33169 18.0589C3.85959 17.8764 3.51841 17.6543 3.16532 17.3012C2.80827 16.9441 2.59007 16.6069 2.40758 16.1348C2.26872 15.7778 2.1021 15.2382 2.05846 14.2504C2.01085 13.1792 1.99895 12.8579 1.99895 10.1482C1.99895 7.43463 2.01085 7.11329 2.05846 6.0461C2.1021 5.05428 2.26872 4.5187 2.40758 4.16165C2.59007 3.68955 2.81224 3.34836 3.16532 2.99528C3.52237 2.63822 3.85959 2.42003 4.33169 2.23753C4.68875 2.09868 5.22829 1.93205 6.21614 1.88841C7.28333 1.84081 7.60468 1.8289 10.3183 1.8289ZM10.3183 0C7.56104 0 7.21589 0.0119018 6.13283 0.0595088C5.05373 0.107116 4.31186 0.281675 3.66916 0.531612C2.9987 0.793451 2.43138 1.1386 1.86803 1.70592C1.30071 2.26927 0.95556 2.83659 0.693721 3.50309C0.443784 4.14975 0.269225 4.88766 0.221618 5.96675C0.174011 7.05378 0.162109 7.39893 0.162109 10.1562C0.162109 12.9134 0.174011 13.2586 0.221618 14.3416C0.269225 15.4207 0.443784 16.1626 0.693721 16.8053C0.95556 17.4758 1.30071 18.0431 1.86803 18.6064C2.43138 19.1698 2.9987 19.5189 3.6652 19.7768C4.31186 20.0267 5.04977 20.2013 6.12886 20.2489C7.21192 20.2965 7.55707 20.3084 10.3143 20.3084C13.0716 20.3084 13.4167 20.2965 14.4998 20.2489C15.5789 20.2013 16.3207 20.0267 16.9634 19.7768C17.6299 19.5189 18.1972 19.1698 18.7606 18.6064C19.3239 18.0431 19.6731 17.4758 19.9309 16.8093C20.1809 16.1626 20.3554 15.4247 20.403 14.3456C20.4506 13.2625 20.4626 12.9174 20.4626 10.1601C20.4626 7.4029 20.4506 7.05775 20.403 5.97469C20.3554 4.89559 20.1809 4.15372 19.9309 3.51102C19.681 2.83659 19.3359 2.26927 18.7685 1.70592C18.2052 1.14257 17.6379 0.793451 16.9714 0.535579C16.3247 0.285642 15.5868 0.111083 14.5077 0.0634761C13.4207 0.0119018 13.0755 0 10.3183 0Z" fill="#C9195D"/>
<path d="M10.3185 4.93945C7.43828 4.93945 5.10156 7.27617 5.10156 10.1564C5.10156 13.0366 7.43828 15.3733 10.3185 15.3733C13.1987 15.3733 15.5354 13.0366 15.5354 10.1564C15.5354 7.27617 13.1987 4.93945 10.3185 4.93945ZM10.3185 13.5405C8.44993 13.5405 6.93443 12.025 6.93443 10.1564C6.93443 8.28782 8.44993 6.77232 10.3185 6.77232C12.1871 6.77232 13.7026 8.28782 13.7026 10.1564C13.7026 12.025 12.1871 13.5405 10.3185 13.5405Z" fill="#C9195D"/>
<path d="M16.9593 4.73309C16.9593 5.40752 16.4119 5.95103 15.7414 5.95103C15.067 5.95103 14.5234 5.40355 14.5234 4.73309C14.5234 4.05865 15.0709 3.51514 15.7414 3.51514C16.4119 3.51514 16.9593 4.06262 16.9593 4.73309Z" fill="#C9195D"/>
</g>
<defs>
<clipPath id="clip0_570_1093">
<rect width="20.3123" height="20.3123" fill="white" transform="translate(0.162109)"/>
</clipPath>
</defs>
</svg>
