<svg width="113" height="112" viewBox="0 0 113 112" fill="none" xmlns="http://www.w3.org/2000/svg">
<g id="Isolationsmodus">
<path id="Vector" d="M90.8072 58.4348C112.16 35.1158 110.926 4.48096 110.834 2.74346C110.788 1.89758 110.125 1.21172 109.279 1.166C108.845 1.166 77.5244 -0.297158 53.7482 21.2158L46.1352 20.5985C41.8372 20.2327 37.5163 21.4216 33.9956 23.9364L1.829 46.9125C1.21173 47.3697 0.960252 48.1699 1.25746 48.9015C1.55466 49.6102 2.28624 50.0445 3.04068 49.9302L36.5332 44.9006C35.2758 47.6212 34.1327 50.5018 33.104 53.5653L23.9592 58.5034C23.502 58.7549 23.1819 59.2121 23.1133 59.7151C23.0448 60.2409 23.2048 60.7667 23.5934 61.1325L50.8904 88.4295C51.2105 88.7496 51.622 88.9096 52.0564 88.9096C52.1478 88.9096 52.2164 88.9096 52.3079 88.9096C52.8337 88.841 53.2681 88.521 53.5195 88.0637L58.4577 78.919C61.5212 77.8902 64.4018 76.7471 67.1223 75.5126L62.0927 108.982C61.9784 109.737 62.4128 110.491 63.1215 110.766C63.3273 110.857 63.533 110.88 63.7388 110.88C64.2646 110.88 64.7676 110.628 65.0876 110.194L88.0637 78.0503C90.5785 74.5295 91.7673 70.2315 91.4016 65.9106L90.7843 58.4805L90.8072 58.4348ZM105.462 21.9245C98.7859 19.6383 92.2474 13.0541 90.007 6.37849C98.1001 4.61813 104.616 4.41237 107.519 4.43524C107.519 7.2701 107.268 13.8086 105.439 21.9245H105.462ZM9.39626 45.6094L35.916 26.6569C38.7965 24.5993 42.3173 23.6163 45.8608 23.9135L50.5475 24.3021C46.0209 28.966 41.8372 34.5442 38.3393 41.2656L9.39626 45.6094ZM86.7835 7.17865C89.2983 15.0431 96.797 22.5875 104.684 25.1709C100.089 42.5001 88.2466 65.2705 57.749 75.6498L47.0497 64.9504L36.3503 54.2511C46.821 23.502 69.4999 11.6824 86.7835 7.17865ZM51.6449 84.4744L27.5028 60.3324L34.1327 56.743L55.2113 77.8216L51.622 84.4744H51.6449ZM85.366 76.0613L66.4136 102.581L70.7574 73.6836C77.4787 70.1858 83.0799 66.0707 87.7437 61.5898L88.1095 66.1393C88.4067 69.66 87.4236 73.2036 85.366 76.0841V76.0613Z" fill="white" stroke="white" stroke-miterlimit="10"/>
<path id="Vector_2" d="M72.1059 55.737C76.1525 55.737 80.2219 54.1824 83.3082 51.0961C89.4809 44.9234 89.4809 34.8642 83.3082 28.6915C77.1355 22.5188 67.0763 22.5188 60.9036 28.6915C57.9087 31.6864 56.2627 35.6644 56.2627 39.8938C56.2627 44.1232 57.9087 48.1012 60.9036 51.0961C63.99 54.1824 68.0365 55.737 72.1059 55.737ZM63.2584 31.0463C65.7046 28.6001 68.9053 27.3884 72.1059 27.3884C75.3066 27.3884 78.5072 28.6001 80.9534 31.0463C85.823 35.9159 85.823 43.8718 80.9534 48.7413C76.0839 53.6109 68.128 53.6109 63.2584 48.7413C60.9036 46.3637 59.6005 43.2316 59.6005 39.8938C59.6005 36.556 60.9036 33.4011 63.2584 31.0463Z" fill="white" stroke="white" stroke-miterlimit="10"/>
<path id="Vector_3" d="M75.9468 46.0895C76.2669 46.4095 76.7012 46.5696 77.1128 46.5696C77.5243 46.5696 77.9587 46.4095 78.2787 46.0895C81.6851 42.6831 81.6851 37.1276 78.2787 33.6984C77.6386 33.0582 76.5869 33.0582 75.9239 33.6984C75.2838 34.3614 75.2838 35.3901 75.9239 36.0531C78.0501 38.1793 78.0501 41.6085 75.9239 43.7347C75.2838 44.3748 75.2838 45.4493 75.9239 46.0895H75.9468Z" fill="white" stroke="white" stroke-miterlimit="10"/>
</g>
</svg>
