<svg width="21" height="21" viewBox="0 0 21 21" fill="none" xmlns="http://www.w3.org/2000/svg">
<g clip-path="url(#clip0_570_1092)">
<path d="M19.131 0H1.82189C0.992732 0 0.322266 0.654597 0.322266 1.46392V18.8445C0.322266 19.6538 0.992732 20.3123 1.82189 20.3123H19.131C19.9602 20.3123 20.6346 19.6538 20.6346 18.8484V1.46392C20.6346 0.654597 19.9602 0 19.131 0ZM6.34852 17.3091H3.33341V7.61316H6.34852V17.3091ZM4.84097 6.29207C3.87296 6.29207 3.09141 5.51052 3.09141 4.54647C3.09141 3.58243 3.87296 2.80088 4.84097 2.80088C5.80501 2.80088 6.58656 3.58243 6.58656 4.54647C6.58656 5.50655 5.80501 6.29207 4.84097 6.29207ZM17.6314 17.3091H14.6202V12.596C14.6202 11.4733 14.6004 10.0253 13.0532 10.0253C11.4861 10.0253 11.2481 11.2511 11.2481 12.5167V17.3091H8.24091V7.61316H11.1291V8.93822H11.1687C11.5694 8.17651 12.5533 7.37116 14.0172 7.37116C17.068 7.37116 17.6314 9.37859 17.6314 11.989V17.3091Z" fill="#C9195D"/>
</g>
<defs>
<clipPath id="clip0_570_1092">
<rect width="20.3123" height="20.3123" fill="white" transform="translate(0.322266)"/>
</clipPath>
</defs>
</svg>
