<svg width="105" height="105" viewBox="0 0 105 105" fill="none" xmlns="http://www.w3.org/2000/svg">
<path fill-rule="evenodd" clip-rule="evenodd" d="M13.125 5.46875C8.89657 5.46875 5.46875 8.89657 5.46875 13.125V39.375C5.46875 43.6035 8.8966 47.0312 13.125 47.0312H39.375C43.6035 47.0312 47.0312 43.6035 47.0312 39.375V13.125C47.0312 8.8966 43.6035 5.46875 39.375 5.46875H13.125ZM12.0312 13.125C12.0312 12.5209 12.5209 12.0312 13.125 12.0312H39.375C39.9791 12.0312 40.4687 12.5209 40.4687 13.125V39.375C40.4687 39.9791 39.9791 40.4687 39.375 40.4687H13.125C12.5209 40.4687 12.0312 39.9791 12.0312 39.375V13.125ZM13.125 57.9688C8.8966 57.9688 5.46875 61.3965 5.46875 65.625V91.875C5.46875 96.1035 8.8966 99.5312 13.125 99.5312H39.375C43.6035 99.5312 47.0312 96.1035 47.0312 91.875V65.625C47.0312 61.3965 43.6035 57.9688 39.375 57.9688H13.125ZM12.0312 65.625C12.0312 65.0209 12.5209 64.5312 13.125 64.5312H39.375C39.9791 64.5312 40.4687 65.0209 40.4687 65.625V91.875C40.4687 92.4791 39.9791 92.9687 39.375 92.9687H13.125C12.5209 92.9687 12.0312 92.4791 12.0312 91.875V65.625ZM57.9688 13.125C57.9688 8.8966 61.3965 5.46875 65.625 5.46875H91.875C96.1035 5.46875 99.5312 8.8966 99.5312 13.125V39.375C99.5312 43.6035 96.1035 47.0312 91.875 47.0312H65.625C61.3965 47.0312 57.9688 43.6035 57.9688 39.375V13.125ZM65.625 12.0312C65.0209 12.0312 64.5312 12.5209 64.5312 13.125V39.375C64.5312 39.9791 65.0209 40.4687 65.625 40.4687H91.875C92.4791 40.4687 92.9687 39.9791 92.9687 39.375V13.125C92.9687 12.5209 92.4791 12.0312 91.875 12.0312H65.625ZM61.25 57.9688C59.4378 57.9688 57.9688 59.4378 57.9688 61.25C57.9688 63.0622 59.4378 64.5312 61.25 64.5312H96.25C98.0622 64.5312 99.5312 63.0622 99.5312 61.25C99.5312 59.4378 98.0622 57.9688 96.25 57.9688H61.25ZM75.4687 78.75C75.4687 76.9378 76.9378 75.4687 78.75 75.4687H96.25C98.0622 75.4687 99.5312 76.9378 99.5312 78.75C99.5312 80.5622 98.0622 82.0312 96.25 82.0312H78.75C76.9378 82.0312 75.4687 80.5622 75.4687 78.75ZM61.25 92.9687C59.4378 92.9687 57.9688 94.4378 57.9688 96.25C57.9688 98.0622 59.4378 99.5312 61.25 99.5312H96.25C98.0622 99.5312 99.5312 98.0622 99.5312 96.25C99.5312 94.4378 98.0622 92.9687 96.25 92.9687H61.25Z" fill="#C9195D"/>
</svg>
