<svg width="140" height="114" viewBox="0 0 140 114" fill="none" xmlns="http://www.w3.org/2000/svg">
<g id="raised_fist">
<path id="Vector" d="M33.8397 49.6538C28.1261 49.6538 23.4473 44.9749 23.4473 39.2613V30.9383C23.4473 25.2248 28.1261 20.5459 33.8397 20.5459C39.5533 20.5459 44.2322 25.2248 44.2322 30.9383V39.2613C44.2322 44.9749 39.5533 49.6538 33.8397 49.6538Z" stroke="white" stroke-width="5" stroke-linecap="round" stroke-linejoin="round"/>
<path id="Vector_2" d="M55.4572 51.6782C55.1873 51.7007 54.8948 51.7232 54.6024 51.7232C48.8888 51.7232 44.21 47.0443 44.21 41.3307V27.0467C44.21 21.3331 48.8888 16.6543 54.6024 16.6543C57.0093 16.6543 59.2363 17.4866 61.0133 18.8812C63.4427 20.7933 64.9949 23.7401 64.9949 27.0467V41.3307C64.9949 41.5557 64.9949 41.7581 64.9724 41.9606" stroke="white" stroke-width="5" stroke-linecap="round" stroke-linejoin="round"/>
<path id="Vector_3" d="M81.5958 66.7269C80.696 60.7434 76.3545 60.1135 75.0049 60.0461H67.5817C62.0706 60.0461 57.3467 56.5594 55.4797 51.7006C54.9398 50.261 54.6249 48.7313 54.6249 47.1117V44.7273C54.6249 43.2202 55.8396 41.983 57.3692 41.983H76.1746C76.1746 41.983 86.5221 41.3082 97.2294 44.9972C107.937 48.6863 114.28 53.2977 109.264 78.2441C107.172 88.5915 101.548 99.4339 95.6548 103.685C89.0639 108.432 81.0784 110.839 72.9579 110.839H58.1115C41.3307 110.839 33.0077 99.5913 28.9587 89.7613C26.4168 83.5978 25.2246 72.7779 25.2246 66.1196V44.9972" stroke="white" stroke-width="5" stroke-linecap="round" stroke-linejoin="round"/>
<path id="Vector_4" d="M85.7795 42.4103V25.0671C85.7795 19.3535 90.4584 14.6746 96.172 14.6746C101.886 14.6746 106.564 19.3535 106.564 25.0671V42.0954C106.564 45.4695 103.078 47.6515 100.019 46.2569C96.4869 44.6373 91.6506 42.9952 85.7795 42.4103ZM85.7795 42.4103V23.5599C85.7795 17.8463 81.1007 13.1675 75.3871 13.1675C69.6735 13.1675 64.9946 17.8463 64.9946 23.5599V41.9829" stroke="white" stroke-width="5" stroke-linecap="round" stroke-linejoin="round"/>
<path id="Vector_5" d="M26.4392 3C26.4392 3 12.3802 20.2083 3 13.1675C3 13.1675 13.4149 23.9424 6.6441 35.0996" stroke="white" stroke-width="5" stroke-linecap="round" stroke-linejoin="round"/>
<path id="Vector_6" d="M125.033 16.6543C125.033 16.6543 124.538 35.3022 136.527 35.0998C136.527 35.0998 122.311 39.4187 124.245 54.6475" stroke="white" stroke-width="5" stroke-linecap="round" stroke-linejoin="round"/>
</g>
</svg>
