<svg width="21" height="21" viewBox="0 0 21 21" fill="none" xmlns="http://www.w3.org/2000/svg">
<path d="M10.6405 0C5.03157 0 0.484375 4.54673 0.484375 10.1562C0.484375 15.7656 5.03157 20.3123 10.6405 20.3123C16.2495 20.3123 20.7967 15.7656 20.7967 10.1562C20.7967 4.54673 16.2495 0 10.6405 0ZM15.5955 14.6407C15.4324 14.9296 15.1324 15.0921 14.823 15.0921C14.6784 15.0921 14.5291 15.0559 14.3922 14.9797C13.1242 14.2688 11.7423 13.8333 10.282 13.6854C8.8186 13.5388 7.37364 13.6873 5.98563 14.1305C5.52245 14.2783 5.02388 14.0224 4.87616 13.5585C4.72689 13.0938 4.98387 12.5969 5.44859 12.4482C7.06742 11.931 8.75549 11.7552 10.4605 11.9284C12.1624 12.1017 13.7751 12.6095 15.2554 13.4392C15.6817 13.6765 15.834 14.2148 15.5955 14.6407ZM16.8112 11.5559C16.6542 11.8579 16.3465 12.0312 16.0279 12.0312C15.8894 12.0312 15.7509 11.9995 15.6201 11.931C14.0613 11.1192 12.3779 10.6164 10.6128 10.4373C8.83397 10.2553 7.07204 10.4139 5.37319 10.9039C4.90385 11.0371 4.41451 10.7688 4.28064 10.2996C4.14522 9.83117 4.41604 9.34183 4.88384 9.20657C6.8012 8.65367 8.78935 8.47655 10.7913 8.67968C12.7795 8.88219 14.6784 9.44847 16.4373 10.365C16.8681 10.5904 17.0374 11.1235 16.8112 11.5559ZM17.2513 8.98944C17.1189 8.98944 16.9851 8.95959 16.8574 8.8968C15.0077 7.97444 13.018 7.4 10.9421 7.18934C8.86321 6.97667 6.79505 7.14102 4.79305 7.6756C4.32218 7.80056 3.83899 7.52126 3.7128 7.04961C3.58662 6.57858 3.8667 6.09432 4.33911 5.9686C6.54731 5.37892 8.8309 5.19934 11.1222 5.43232C13.4104 5.66391 15.6048 6.29806 17.6452 7.31567C18.0823 7.53326 18.2592 8.064 18.0422 8.5001C17.8884 8.81048 17.576 8.98944 17.2513 8.98944Z" fill="#C9195D"/>
</svg>
