<svg width="161" height="161" viewBox="0 0 161 161" fill="none" xmlns="http://www.w3.org/2000/svg">
<path d="M80.5 0C36.0418 0 0 36.0418 0 80.5C0 124.958 36.0418 161 80.5 161C124.958 161 161 124.958 161 80.5C161 36.0418 124.958 0 80.5 0ZM80.5 5.55172C121.888 5.55172 155.448 39.1119 155.448 80.5C155.448 121.888 121.888 155.448 80.5 155.448C39.1119 155.448 5.55172 121.888 5.55172 80.5C5.55172 39.1119 39.1119 5.55172 80.5 5.55172ZM80.4349 16.5738C56.7375 16.5603 34.5901 29.7738 23.546 51.386C10.9381 76.0773 15.7122 106.089 35.3597 125.662C36.4645 126.606 38.1033 126.54 39.1331 125.521C40.163 124.491 40.2179 122.852 39.2741 121.748C16.4926 98.9744 16.4926 62.0473 39.2741 39.2741C52.5344 26.0777 71.2948 20.0182 89.7709 22.9551C91.3004 23.2049 92.7361 22.1533 92.986 20.6238C93.2358 19.0943 92.1842 17.6532 90.6547 17.4034C87.2338 16.8475 83.8203 16.5758 80.4349 16.5738ZM101.373 20.4937C100.882 20.5558 100.408 20.7477 100.007 21.0684C99.1936 21.7068 98.8014 22.7471 98.9985 23.7575C99.1817 24.7651 99.9187 25.5882 100.907 25.8936C102.892 26.6431 104.831 27.5031 106.73 28.458C107.118 28.6384 107.555 28.7345 107.977 28.7345C109.256 28.7234 110.372 27.8475 110.666 26.5984C110.957 25.352 110.375 24.0721 109.235 23.4864C107.153 22.4454 105.027 21.5128 102.848 20.7105C102.376 20.4996 101.865 20.4316 101.373 20.4937ZM117.855 29.77C117.186 29.8773 116.555 30.2257 116.109 30.7947C115.21 31.9439 115.352 33.583 116.424 34.5573C118.278 36.0202 120.046 37.6058 121.726 39.2741C144.485 62.0445 144.485 98.9555 121.726 121.726C120.935 122.398 120.587 123.461 120.826 124.48C121.076 125.488 121.868 126.274 122.875 126.524C123.894 126.763 124.957 126.431 125.64 125.64C150.559 100.702 150.556 60.3008 125.64 35.3597C123.808 33.5276 121.868 31.8028 119.839 30.1983C119.231 29.7972 118.524 29.6628 117.855 29.77ZM80.7602 49.9601C79.9452 49.8818 79.1199 50.1662 78.5265 50.7679L67.4231 61.8714C66.4793 62.9762 66.545 64.615 67.5749 65.6448C68.5936 66.6635 70.2438 66.7296 71.3375 65.7858L77.7241 59.4316V105.483H72.1724C70.6429 105.483 69.3966 106.729 69.3966 108.259C69.3966 109.788 70.6429 111.034 72.1724 111.034H88.8276C90.3571 111.034 91.6034 109.788 91.6034 108.259C91.6034 106.729 90.3571 105.483 88.8276 105.483H83.2759V52.7414C83.287 51.6144 82.6036 50.5965 81.5626 50.1607C81.3024 50.0517 81.0319 49.9862 80.7602 49.9601ZM107.554 125.901C106.535 125.878 105.592 126.43 105.092 127.321C104.604 128.209 104.627 129.296 105.179 130.162L107.955 134.965C108.421 135.865 109.354 136.44 110.373 136.451C111.392 136.462 112.335 135.922 112.834 135.031C113.334 134.139 113.3 133.045 112.759 132.19L109.983 127.386C109.505 126.487 108.573 125.912 107.554 125.901ZM53.7932 126.009C53.4337 125.961 53.0669 125.982 52.7088 126.074C51.9927 126.268 51.3837 126.745 51.0173 127.386L48.2414 132.19C47.7002 133.047 47.6659 134.142 48.1655 135.031C48.6652 135.919 49.6082 136.462 50.627 136.451C51.6457 136.44 52.5786 135.865 53.045 134.965L55.8209 130.162C56.2011 129.523 56.2996 128.764 56.1136 128.047C55.9276 127.342 55.4617 126.722 54.8233 126.356C54.5041 126.171 54.1526 126.056 53.7932 126.009ZM66.1056 131.431C65.0363 131.582 64.1142 132.353 63.8123 133.458L62.3701 138.793C62.0787 139.759 62.3263 140.82 63.0424 141.547C63.7475 142.275 64.8006 142.554 65.7749 142.285C66.7492 142.015 67.4991 141.221 67.7267 140.235L69.1797 134.879C69.5628 133.405 68.6802 131.887 67.2062 131.496C66.8349 131.398 66.4621 131.38 66.1056 131.431ZM94.8564 131.523C94.5064 131.477 94.1438 131.496 93.7829 131.593C92.3312 131.985 91.4627 133.448 91.7986 134.911L93.2408 140.268C93.6516 141.753 95.1821 142.633 96.6672 142.22C98.1523 141.817 99.0323 140.278 98.6298 138.793L97.1552 133.458C96.8304 132.392 95.9065 131.66 94.8564 131.523ZM80.5 133.241C78.9705 133.241 77.7241 134.488 77.7241 136.017V141.569C77.7241 143.098 78.9705 144.345 80.5 144.345C82.0295 144.345 83.2759 143.098 83.2759 141.569V136.017C83.2759 134.488 82.0295 133.241 80.5 133.241Z" fill="#0BD1FE"/>
</svg>
