<svg width="161" height="161" viewBox="0 0 161 161" fill="none" xmlns="http://www.w3.org/2000/svg">
<path d="M80.5 0C36.1187 0 0 36.1187 0 80.5C0 124.881 36.1187 161 80.5 161C124.881 161 161 124.881 161 80.5C161 36.1187 124.881 0 80.5 0ZM80.5 5.55172C121.823 5.55172 155.448 39.1765 155.448 80.5C155.448 121.823 121.823 155.448 80.5 155.448C39.1765 155.448 5.55172 121.823 5.55172 80.5C5.55172 39.1765 39.1765 5.55172 80.5 5.55172ZM79.2856 16.6769C62.934 17.013 47.0812 23.6165 35.3489 35.3489C10.4637 60.2449 10.4637 100.744 35.3489 125.64C35.891 126.182 36.6067 126.454 37.3115 126.454C38.0271 126.454 38.7428 126.182 39.285 125.64C40.3693 124.556 40.3693 122.799 39.285 121.715C16.5467 98.9877 16.5576 62.0123 39.285 39.285C52.4595 26.0996 71.3375 19.984 89.7709 22.9442C91.2782 23.1936 92.6986 22.1527 92.948 20.6455C93.1974 19.1274 92.1565 17.6961 90.6492 17.4576C86.8541 16.8504 83.059 16.601 79.2856 16.6769ZM101.753 20.5045C100.679 20.5479 99.6708 21.231 99.2804 22.3045C98.7383 23.7466 99.4648 25.3406 100.907 25.8827C102.88 26.6201 104.832 27.4659 106.741 28.4201C107.131 28.6261 107.554 28.7237 107.977 28.7237C108.985 28.7237 109.972 28.1707 110.46 27.1948C111.154 25.8394 110.601 24.1587 109.235 23.4647C107.163 22.4238 105.006 21.4804 102.848 20.678C102.49 20.5479 102.121 20.4937 101.753 20.5045ZM117.79 29.6345C117.074 29.7212 116.413 30.0791 115.936 30.6754C114.992 31.8899 115.198 33.6248 116.413 34.5682C118.267 36.0211 120.056 37.6151 121.715 39.285C144.453 62.0123 144.453 98.9877 121.715 121.715C120.631 122.81 120.631 124.556 121.715 125.651C122.257 126.182 122.973 126.464 123.689 126.464C124.393 126.464 125.109 126.182 125.651 125.651C150.536 100.755 150.536 60.2449 125.651 35.3489C123.819 33.5272 121.867 31.7923 119.839 30.1983C119.232 29.7321 118.495 29.5477 117.79 29.6345ZM74.9483 49.9655C67.293 49.9655 61.069 56.1895 61.069 63.8448C61.069 65.3846 62.3051 66.6207 63.8448 66.6207C65.3846 66.6207 66.6207 65.3846 66.6207 63.8448C66.6207 59.2581 70.3616 55.5172 74.9483 55.5172H86.0517C90.6384 55.5172 94.3793 59.2581 94.3793 63.8448V71.923C94.3793 76.1519 92.0263 79.9578 88.2421 81.8446L72.5302 89.7059C65.4605 93.2408 61.069 100.354 61.069 108.259C61.069 109.798 62.3051 111.034 63.8448 111.034H97.1552C98.6949 111.034 99.931 109.798 99.931 108.259C99.931 106.719 98.6949 105.483 97.1552 105.483H66.8809C67.7267 100.831 70.676 96.8407 75.0133 94.6721L90.7251 86.8216C96.407 83.9807 99.931 78.2663 99.931 71.923V63.8448C99.931 56.1895 93.707 49.9655 86.0517 49.9655H74.9483ZM53.7823 126.009C52.698 125.879 51.6028 126.378 51.039 127.375L48.2631 132.179C47.4933 133.512 47.9487 135.204 49.2715 135.974C49.7053 136.223 50.1824 136.343 50.6595 136.343C51.6137 136.343 52.5462 135.844 53.0558 134.955L55.8317 130.151C56.6016 128.828 56.157 127.126 54.8233 126.356C54.4871 126.172 54.1402 126.052 53.7823 126.009ZM107.218 126.009C106.86 126.052 106.502 126.172 106.177 126.356C104.843 127.126 104.398 128.828 105.168 130.162L107.944 134.965C108.454 135.855 109.386 136.353 110.341 136.353C110.818 136.353 111.295 136.223 111.728 135.974C113.062 135.204 113.507 133.512 112.737 132.19L109.961 127.386C109.386 126.388 108.291 125.879 107.218 126.009ZM66.1111 131.42C65.0376 131.572 64.1051 132.341 63.8015 133.458L62.3701 138.826C61.9689 140.3 62.8581 141.818 64.3328 142.22C64.5713 142.285 64.8099 142.306 65.0593 142.306C66.2737 142.306 67.4014 141.493 67.7375 140.257L69.1797 134.89C69.57 133.415 68.6917 131.886 67.2171 131.496C66.8375 131.387 66.4689 131.365 66.1111 131.42ZM94.8998 131.42C94.542 131.365 94.1624 131.387 93.7829 131.496C92.3083 131.886 91.43 133.415 91.8203 134.89L93.2625 140.257C93.5986 141.493 94.7154 142.306 95.9407 142.306C96.1901 142.306 96.4287 142.285 96.6672 142.22C98.1419 141.818 99.031 140.3 98.6298 138.826L97.1985 133.458C96.8949 132.341 95.9624 131.572 94.8998 131.42ZM80.5 133.241C78.9603 133.241 77.7241 134.478 77.7241 136.017V141.569C77.7241 143.109 78.9603 144.345 80.5 144.345C82.0397 144.345 83.2759 143.109 83.2759 141.569V136.017C83.2759 134.478 82.0397 133.241 80.5 133.241Z" fill="#0BD1FE"/>
</svg>
