<svg width="161" height="161" viewBox="0 0 161 161" fill="none" xmlns="http://www.w3.org/2000/svg">
<path d="M80.5 0C36.114 0 0 36.114 0 80.5C0 124.886 36.114 161 80.5 161C124.886 161 161 124.886 161 80.5C161 36.114 124.886 0 80.5 0ZM80.5 5.55172C121.827 5.55172 155.448 39.173 155.448 80.5C155.448 121.827 121.827 155.448 80.5 155.448C39.173 155.448 5.55172 121.827 5.55172 80.5C5.55172 39.173 39.173 5.55172 80.5 5.55172ZM79.2856 16.6769C62.9297 17.0117 47.0846 23.6186 35.3543 35.3489C10.4631 60.2428 10.4631 100.749 35.3543 125.64C35.8956 126.182 36.6063 126.454 37.3169 126.454C38.0275 126.454 38.7382 126.182 39.2795 125.64C40.3649 124.555 40.3649 122.8 39.2795 121.715C16.5508 98.9891 16.5535 62.0111 39.2795 39.2795C52.4621 26.0997 71.3393 19.9879 89.7655 22.9442C91.2728 23.1913 92.7037 22.1557 92.948 20.6401C93.1923 19.1272 92.1567 17.6991 90.6438 17.4576C86.8589 16.8523 83.06 16.5996 79.2856 16.6769ZM101.758 20.5045C100.678 20.5512 99.6747 21.2261 99.275 22.3045C98.7393 23.7424 99.469 25.3444 100.907 25.8773C102.878 26.6157 104.836 27.4678 106.735 28.4255C107.135 28.6281 107.558 28.7291 107.977 28.7291C108.99 28.7291 109.971 28.169 110.46 27.2002C111.151 25.8345 110.603 24.1613 109.235 23.4701C107.158 22.4209 105.01 21.483 102.848 20.678C102.49 20.5455 102.118 20.4889 101.758 20.5045ZM117.784 29.6345C117.08 29.7205 116.408 30.0771 115.936 30.6809C114.989 31.8884 115.202 33.627 116.413 34.5736C118.267 36.0254 120.052 37.6112 121.72 39.2795C144.449 62.0083 144.449 98.9917 121.72 121.72C120.635 122.806 120.635 124.56 121.72 125.646C122.262 126.187 122.972 126.459 123.683 126.459C124.394 126.459 125.104 126.187 125.646 125.646C150.534 100.755 150.534 60.2482 125.646 35.3543C123.819 33.5278 121.868 31.7943 119.834 30.2038C119.23 29.7305 118.489 29.5484 117.784 29.6345ZM74.9483 49.9655C67.2841 49.9655 61.069 56.1807 61.069 63.8448C61.069 65.3771 62.3125 66.6207 63.8448 66.6207C65.3771 66.6207 66.6207 65.3771 66.6207 63.8448C66.6207 59.2452 70.3487 55.5172 74.9483 55.5172H86.0517C90.6513 55.5172 94.3793 59.2452 94.3793 63.8448V69.3966C94.3793 73.9962 90.6513 77.7241 86.0517 77.7241H74.9483C73.416 77.7241 72.1724 78.9677 72.1724 80.5C72.1724 82.0323 73.416 83.2759 74.9483 83.2759H86.0517C90.6513 83.2759 94.3793 87.0038 94.3793 91.6034V97.1552C94.3793 101.755 90.6513 105.483 86.0517 105.483H74.9483C70.3487 105.483 66.6207 101.755 66.6207 97.1552C66.6207 95.6229 65.3771 94.3793 63.8448 94.3793C62.3125 94.3793 61.069 95.6229 61.069 97.1552C61.069 104.819 67.2841 111.034 74.9483 111.034H86.0517C93.7159 111.034 99.931 104.819 99.931 97.1552V91.6034C99.931 87.2342 97.8741 83.1204 94.3793 80.5C97.8741 77.8796 99.931 73.7658 99.931 69.3966V63.8448C99.931 56.1807 93.7159 49.9655 86.0517 49.9655H74.9483ZM53.7769 126.009C52.703 125.875 51.6082 126.378 51.0336 127.375L48.2577 132.179C47.4916 133.508 47.9447 135.208 49.2715 135.974C49.7074 136.226 50.1822 136.343 50.6541 136.343C51.6145 136.343 52.5477 135.846 53.0613 134.955L55.8371 130.151C56.606 128.824 56.1529 127.13 54.8233 126.361C54.4909 126.17 54.1349 126.053 53.7769 126.009ZM107.218 126.009C106.86 126.054 106.507 126.169 106.177 126.361C104.847 127.127 104.394 128.83 105.163 130.156L107.939 134.96C108.455 135.851 109.385 136.348 110.346 136.348C110.818 136.348 111.293 136.226 111.728 135.974C113.058 135.208 113.511 133.511 112.742 132.184L109.966 127.381C109.39 126.383 108.29 125.875 107.218 126.009ZM66.1111 131.42C65.0404 131.568 64.1046 132.341 63.8069 133.453L62.3701 138.82C61.9732 140.3 62.8532 141.823 64.3328 142.22C64.5743 142.283 64.8151 142.312 65.0538 142.312C66.278 142.312 67.4018 141.498 67.7321 140.257L69.1743 134.895C69.5712 133.415 68.6912 131.887 67.2116 131.49C66.8431 131.39 66.4679 131.37 66.1111 131.42ZM94.8944 131.42C94.537 131.37 94.1596 131.39 93.7884 131.49C92.3088 131.887 91.4288 133.413 91.8257 134.895L93.2679 140.257C93.5982 141.498 94.7192 142.312 95.9462 142.312C96.1849 142.312 96.4257 142.283 96.6672 142.22C98.1468 141.823 99.0268 140.303 98.6298 138.82L97.1931 133.453C96.8954 132.341 95.9665 131.568 94.8944 131.42ZM80.5 133.241C78.9649 133.241 77.7241 134.482 77.7241 136.017V141.569C77.7241 143.104 78.9649 144.345 80.5 144.345C82.035 144.345 83.2759 143.104 83.2759 141.569V136.017C83.2759 134.482 82.035 133.241 80.5 133.241Z" fill="#0BD1FE"/>
</svg>
